<?xml version="1.0" encoding="UTF-8" standalone="no"?>
<!-- Created with Inkscape (http://www.inkscape.org/) -->

<svg
   width="43.022362mm"
   height="33.010559mm"
   viewBox="0 0 43.022362 33.010559"
   version="1.1"
   id="svg5"
   xmlns:inkscape="http://www.inkscape.org/namespaces/inkscape"
   xmlns:sodipodi="http://sodipodi.sourceforge.net/DTD/sodipodi-0.dtd"
   xmlns="http://www.w3.org/2000/svg"
   xmlns:svg="http://www.w3.org/2000/svg">
  <sodipodi:namedview
     id="namedview7"
     pagecolor="#505050"
     bordercolor="#ffffff"
     borderopacity="1"
     inkscape:showpageshadow="0"
     inkscape:pageopacity="0"
     inkscape:pagecheckerboard="1"
     inkscape:deskcolor="#505050"
     inkscape:document-units="mm"
     showgrid="false" />
  <defs
     id="defs2" />
  <g
     inkscape:label="Layer 1"
     inkscape:groupmode="layer"
     id="layer1"
     transform="translate(-58.572931,-121.71827)">
    <path
       id="path241"
       style="fill:currentColor;stroke-width:0.273723"
       d="m 42.344674,142.44591 a 22.082796,15.732939 0 0 0 -9.843382,-1.64995 22.082796,15.732939 0 0 0 -22.08278,15.73323 22.082796,15.732939 0 0 0 22.08275,15.7329 22.082796,15.732939 0 0 0 6.239057,-0.64196 c -0.80131,-0.74411 -1.400321,-1.54777 -1.795821,-2.41102 -0.524757,-1.16986 -0.576993,-2.38614 -0.157489,-3.64942 0.6269,-1.88783 1.970111,-3.05434 4.029938,-3.49923 2.059828,-0.44488 4.566156,-0.17193 7.519173,0.81861 1.247389,0.41841 2.355029,0.90787 3.328865,1.46505 a 22.082796,15.732939 0 0 0 2.919056,-7.81526 22.082796,15.732939 0 0 0 -12.239367,-14.08295 z m -12.41979,14.25744 c 1.052815,0.35315 2.045579,0.75705 2.978937,1.21211 0.938071,0.44086 1.687137,0.84974 2.246857,1.22679 l -1.556021,1.20558 c -0.57386,-0.33447 -1.252981,-0.69643 -2.036981,-1.08562 -0.784001,-0.38918 -1.53528,-0.7039 -2.254276,-0.94507 -4.057189,-1.36092 -6.564509,-0.6007 -7.521356,2.28072 -0.457212,1.37684 -0.320363,2.5975 0.410313,3.66291 0.761068,1.05982 2.117453,1.91729 4.069012,2.57191 1.12985,0.37898 2.139823,0.64686 3.029632,0.80336 0.915488,0.1651 1.762979,0.27595 2.54325,0.33259 l -0.551471,1.66069 c -0.759306,-0.0338 -1.578864,-0.14295 -2.459247,-0.32783 -0.859417,-0.16208 -1.879526,-0.44154 -3.060733,-0.83775 -1.823167,-0.61155 -3.385931,-1.36427 -4.68723,-2.25825 -1.27562,-0.88536 -2.180003,-1.89882 -2.714186,-3.04029 -0.508506,-1.13286 -0.5392,-2.37354 -0.09142,-3.72199 0.466639,-1.40523 1.26998,-2.40542 2.409607,-3.00122 1.139626,-0.5958 2.496934,-0.85878 4.071618,-0.78807 1.600361,0.0793 3.324844,0.42927 5.17369,1.04943 z m 17.811063,7.72533 c -2.105629,-0.70629 -3.760848,-0.83556 -4.96548,-0.38777 -1.204631,0.44779 -2.030592,1.34605 -2.478377,2.69449 -0.447785,1.34845 -0.328896,2.57945 0.357248,3.69302 0.13072,0.20213 0.285257,0.39748 0.462208,0.58624 a 22.082796,15.732939 0 0 0 9.343413,-5.32821 c -0.720151,-0.47132 -1.625475,-0.89096 -2.719012,-1.25777 z"
       transform="matrix(0.94796358,-0.31837877,0.31479459,0.94915982,0,0)" />
  </g>
</svg>
