<?xml version="1.0" encoding="UTF-8" standalone="no"?>
<!-- Created with Inkscape (http://www.inkscape.org/) -->

<svg
   width="42.967628mm"
   height="33.399601mm"
   viewBox="0 0 42.967628 33.399601"
   version="1.1"
   id="svg5"
   inkscape:export-filename="bitmap.svg"
   inkscape:export-xdpi="96"
   inkscape:export-ydpi="96"
   sodipodi:docname="newgrounds.svg"
   inkscape:version="1.2.2 (b0a8486541, 2022-12-01)"
   xmlns:inkscape="http://www.inkscape.org/namespaces/inkscape"
   xmlns:sodipodi="http://sodipodi.sourceforge.net/DTD/sodipodi-0.dtd"
   xmlns="http://www.w3.org/2000/svg"
   xmlns:svg="http://www.w3.org/2000/svg">
  <sodipodi:namedview
     id="namedview7"
     pagecolor="#505050"
     bordercolor="#ffffff"
     borderopacity="1"
     inkscape:showpageshadow="0"
     inkscape:pageopacity="0"
     inkscape:pagecheckerboard="1"
     inkscape:deskcolor="#505050"
     inkscape:document-units="mm"
     showgrid="false"
     inkscape:zoom="2.1946698"
     inkscape:cx="119.60797"
     inkscape:cy="120.97492"
     inkscape:window-width="1920"
     inkscape:window-height="1048"
     inkscape:window-x="0"
     inkscape:window-y="0"
     inkscape:window-maximized="1"
     inkscape:current-layer="layer1" />
  <defs
     id="defs2">
    <rect
       x="39.760361"
       y="77.794868"
       width="143.58749"
       height="136.18082"
       id="rect3031" />
  </defs>
  <g
     inkscape:label="Layer 1"
     inkscape:groupmode="layer"
     id="layer1">
    <g
       aria-label="NG"
       transform="matrix(3.5340423,0,0,3.3788966,-142.25211,-270.72518)"
       id="text3029"
       style="white-space:pre;shape-inside:url(#rect3031);display:inline;fill:currentColor">
      <path
         d="m 45.759766,80.321581 v 9.486328 h -2.16211 l -1.283203,-4.3125 v 4.3125 h -2.0625 v -9.486328 h 2.0625 l 1.382813,4.271484 v -4.271484 z"
         style="font-stretch:condensed;font-size:12px;font-family:Impact;-inkscape-font-specification:'Impact, Condensed'"
         id="path3096" />
      <path
         d="M 52.410156,83.813768 H 49.943359 V 82.95244 q 0,-0.814453 -0.07031,-1.019531 -0.07031,-0.205078 -0.333985,-0.205078 -0.228515,0 -0.310546,0.175781 -0.08203,0.175781 -0.08203,0.902344 v 4.552734 q 0,0.638672 0.08203,0.84375 0.08203,0.199219 0.328125,0.199219 0.269531,0 0.363281,-0.228516 0.09961,-0.228515 0.09961,-0.890625 v -1.125 h -0.498047 v -1.441406 h 2.888672 v 5.091797 h -1.552734 l -0.228516,-0.679688 q -0.251953,0.439454 -0.638672,0.66211 -0.380859,0.216797 -0.902343,0.216797 -0.621094,0 -1.166016,-0.298828 -0.539063,-0.304688 -0.820313,-0.75 -0.28125,-0.445313 -0.351562,-0.931641 -0.07031,-0.492188 -0.07031,-1.470703 v -2.81836 q 0,-1.359375 0.146485,-1.974609 0.146484,-0.615234 0.83789,-1.125 0.697266,-0.515625 1.798829,-0.515625 1.083984,0 1.798828,0.445313 0.714843,0.445312 0.93164,1.060546 0.216797,0.609375 0.216797,1.775391 z"
         style="font-stretch:condensed;font-size:12px;font-family:Impact;-inkscape-font-specification:'Impact, Condensed'"
         id="path3098" />
    </g>
  </g>
</svg>
